<svg xmlns="http://www.w3.org/2000/svg" width="427.973" height="1385.682" viewBox="0 0 427.973 1385.682">
  <path id="Vector" d="M419.276,125.343c-1.709-2.2-7.425-9.124-19.033-14.036-18.8-7.939-26.2.8-57.592-4-7.247-1.114-17.187-3.113-26.143-10.5a46.151,46.151,0,0,1-8.6-9.381,57.327,57.327,0,0,1-7.11-18.963c-2.735-15.35,1.272-18.563-1-29.7-2.16-10.6-8.2-18.563-12.661-23.218C273.219.957,254.979.086,250.3,0H49.566A51.259,51.259,0,0,0,15.041,15.25,55.223,55.223,0,0,0,0,47.336V1385.682H427.973V145.034a46.539,46.539,0,0,0-8.7-19.691Z" fill="#fff"/>
</svg>
