<svg xmlns="http://www.w3.org/2000/svg" version="1.1" xmlns:xlink="http://www.w3.org/1999/xlink" width="512" height="512" x="0" y="0" viewBox="0 0 24 24" style="enable-background:new 0 0 512 512" xml:space="preserve"><g><g data-name="Layer 2"><path fill="#424242" d="M20 6.25h-3.46l-.6-1.8a1.75 1.75 0 0 0-1.66-1.2H9.72a1.75 1.75 0 0 0-1.66 1.2l-.6 1.8H4A1.76 1.76 0 0 0 2.25 8v11A1.76 1.76 0 0 0 4 20.75h16A1.76 1.76 0 0 0 21.75 19V8A1.76 1.76 0 0 0 20 6.25z" opacity="1" data-original="#424242"></path><circle cx="12" cy="13.5" r="4.25" fill="#616161" opacity="1" data-original="#616161"></circle><circle cx="12" cy="13.5" r="2.75" fill="#9E9E9E" opacity="1" data-original="#9e9e9e"></circle><circle cx="17.5" cy="10" r="1" fill="#616161" opacity="1" data-original="#616161"></circle></g></g></svg>